<svg width="12" height="15" viewBox="0 0 12 15" fill="none" xmlns="http://www.w3.org/2000/svg">
<path d="M0.999987 3.88883H11M4.57142 0.999943H7.42856C7.61799 0.999943 7.7997 1.07604 7.93363 1.21147C8.06756 1.34692 8.14284 1.53062 8.14284 1.72217V3.88883H3.85713V1.72217C3.85713 1.53062 3.93239 1.34692 4.06634 1.21147C4.20029 1.07604 4.38197 0.999943 4.57142 0.999943ZM1.71427 3.88883H10.2857V13.2777C10.2857 13.4693 10.2104 13.653 10.0765 13.7884C9.94256 13.9238 9.76084 13.9999 9.57142 13.9999H2.42856C2.23912 13.9999 2.05744 13.9238 1.92348 13.7884C1.78953 13.653 1.71427 13.4693 1.71427 13.2777V3.88883Z" stroke="#FF4E4E" stroke-linecap="round" stroke-linejoin="round"/>
</svg>
