<svg width="15" height="15" viewBox="0 0 15 15" fill="none" xmlns="http://www.w3.org/2000/svg">
<path fill-rule="evenodd" clip-rule="evenodd" d="M0 7.5C0 3.35786 3.35786 0 7.5 0C11.6421 0 15 3.35786 15 7.5C15 11.6421 11.6421 15 7.5 15C3.35786 15 0 11.6421 0 7.5ZM10.2803 6.53032C10.5732 6.23745 10.5732 5.76256 10.2803 5.46967C9.98745 5.17678 9.51255 5.17678 9.21968 5.46967L6.75 7.93935L5.40533 6.59468C5.11244 6.3018 4.63757 6.3018 4.34467 6.59468C4.05178 6.88755 4.05178 7.36245 4.34467 7.65532L6.21968 9.53032C6.51255 9.8232 6.98745 9.8232 7.28032 9.53032L10.2803 6.53032Z" fill="#4B9D20"/>
</svg>
