<svg width="18" height="18" viewBox="0 0 18 18" fill="none" xmlns="http://www.w3.org/2000/svg">
<path fill-rule="evenodd" clip-rule="evenodd" d="M0 8.75C0 3.91751 3.91751 0 8.75 0C13.5824 0 17.5 3.91751 17.5 8.75C17.5 13.5824 13.5824 17.5 8.75 17.5C3.91751 17.5 0 13.5824 0 8.75ZM11.9937 7.61871C12.3354 7.27702 12.3354 6.72299 11.9937 6.38128C11.652 6.03957 11.098 6.03957 10.7563 6.38128L7.875 9.26258L6.30622 7.69379C5.96451 7.3521 5.41049 7.3521 5.06878 7.69379C4.72707 8.03547 4.72707 8.58953 5.06878 8.93121L7.25629 11.1187C7.59798 11.4604 8.15203 11.4604 8.49371 11.1187L11.9937 7.61871Z" fill="#54C11E"/>
</svg>
