<svg width="118" height="115" viewBox="0 0 118 115" fill="none" xmlns="http://www.w3.org/2000/svg">
<g filter="url(#filter0_d_132_32)">
<path d="M54.5592 2.51042L54.5496 2.51868C54.2848 2.74564 51.3558 5.64005 46.8876 10.0848C42.4047 14.5443 36.3457 20.5916 29.7946 27.1544C28.4107 28.5408 27.1039 29.8494 25.87 31.0851C15.4506 41.5196 10.2252 46.7525 7.61636 49.6559C6.16644 51.2695 5.47347 52.217 5.16413 52.9738C4.90566 53.606 4.92157 54.1149 4.93757 54.6265C4.94144 54.7502 4.94531 54.8741 4.94531 54.9999C4.94531 55.1264 4.94124 55.2511 4.93718 55.3757C4.92055 55.8851 4.90396 56.3935 5.16539 57.028C5.47853 57.788 6.1818 58.7456 7.65768 60.3852C10.3136 63.3356 15.6377 68.6673 26.2625 79.3071C27.5203 80.5667 28.8525 81.9007 30.2633 83.314L30.5779 83L30.2633 83.3141C31.6271 84.6802 32.918 85.9738 34.1404 87.1987C44.9899 98.0707 50.4404 103.533 53.4805 106.261C55.1624 107.77 56.1602 108.494 56.9628 108.816C57.6423 109.089 58.1865 109.067 58.7452 109.043C58.8693 109.038 58.994 109.033 59.1211 109.031C60.3871 109.031 61.1755 108.883 62.0415 108.437C62.1488 108.381 62.2861 108.271 62.4109 108.166C62.5536 108.047 62.7369 107.885 62.9561 107.687C63.3952 107.29 63.9908 106.733 64.7187 106.041C66.1753 104.656 68.1707 102.721 70.5225 100.418C75.2267 95.8123 81.362 89.7298 87.4755 83.6221C93.5889 77.5145 99.6818 71.3807 104.301 66.6722C106.61 64.3181 108.553 62.319 109.945 60.8572C110.641 60.1266 111.202 59.528 111.604 59.0855C111.804 58.8645 111.967 58.6795 112.089 58.535C112.197 58.4064 112.306 58.2706 112.363 58.1658L112.364 58.1635C112.832 57.2799 113.066 56.1546 113.081 55.0567C113.096 53.9599 112.895 52.8348 112.435 51.9559C112.387 51.8628 112.308 51.7572 112.23 51.6591C112.144 51.5505 112.031 51.4166 111.892 51.2585C111.614 50.9419 111.223 50.5147 110.715 49.9737C109.698 48.8911 108.203 47.3414 106.194 45.287C102.176 41.1777 96.0924 35.0415 87.6431 26.5687L87.6428 26.5684C77.9284 16.8423 71.8207 10.758 68.0213 7.04649C66.1221 5.19127 64.7957 3.92506 63.8823 3.09209C63.4259 2.67587 63.0681 2.36369 62.7909 2.13878C62.5238 1.92204 62.3024 1.76198 62.1264 1.67592C62.1261 1.67577 62.1258 1.67563 62.1255 1.67548L61.9062 2.12486C60.2891 1.32799 58.5078 1.18736 56.9844 1.74986L54.5592 2.51042ZM54.5592 2.51042L54.5693 2.50266C55.126 2.07249 56.1078 1.53256 56.813 1.28014L54.5592 2.51042ZM108.402 53.9044C108.399 53.9013 108.396 53.8976 108.393 53.8935C108.369 53.8655 108.333 53.825 108.284 53.7706C108.185 53.6625 108.043 53.5106 107.859 53.3167C107.49 52.9294 106.96 52.3824 106.291 51.6975C104.954 50.3283 103.064 48.4132 100.806 46.1347C96.2885 41.578 90.2972 35.5705 84.296 29.5753C78.2949 23.58 72.2845 17.5975 67.7293 13.0905C65.4515 10.8369 63.5383 8.95298 62.1721 7.62104C61.4888 6.95486 60.9437 6.42801 60.5587 6.06244C60.3658 5.87935 60.2153 5.73872 60.1085 5.64192C60.0547 5.59321 60.0151 5.5583 59.9881 5.53558C59.9859 5.53374 59.9839 5.53203 59.982 5.53046C59.7611 5.42653 59.3869 5.35533 58.9678 5.35533C58.5471 5.35533 58.1825 5.42702 57.9763 5.52721C57.9737 5.52937 57.9708 5.53181 57.9676 5.53454C57.9401 5.55801 57.9 5.59363 57.8462 5.64283C57.7391 5.74066 57.5884 5.88229 57.3956 6.06624C57.0106 6.43358 56.4656 6.96222 55.7826 7.63013C54.417 8.96554 52.5047 10.853 50.2282 13.1099C45.6755 17.6235 39.6687 23.612 33.672 29.6102C27.6752 35.6085 21.6889 41.616 17.1771 46.1677C14.9211 48.4436 13.0344 50.355 11.6995 51.719C11.0318 52.4012 10.5033 52.9454 10.136 53.3295C9.95208 53.5218 9.81032 53.6721 9.71231 53.7788C9.66302 53.8324 9.62716 53.8725 9.60339 53.9001C9.6007 53.9032 9.5983 53.906 9.59616 53.9085C9.45149 54.1967 9.36517 54.5771 9.35531 54.9713C9.34548 55.3647 9.41283 55.726 9.53194 55.9834C9.53312 55.9849 9.53438 55.9864 9.53571 55.9879C9.55843 56.0149 9.59334 56.0546 9.64205 56.1084C9.73885 56.2151 9.87948 56.3657 10.0626 56.5585C10.4281 56.9435 10.955 57.4887 11.6212 58.172C12.9531 59.5381 14.8371 61.4514 17.0907 63.7291C21.5976 68.2844 27.5801 74.2948 33.5754 80.2959C39.5707 86.297 45.5781 92.2884 50.1348 96.8055C52.4133 99.0643 54.3284 100.954 55.6977 102.291C56.3825 102.96 56.9296 103.49 57.3168 103.859C57.5108 104.043 57.6626 104.185 57.7707 104.284C57.8251 104.333 57.8657 104.369 57.8936 104.392C57.8977 104.396 57.9014 104.399 57.9045 104.402C58.5439 104.725 59.4561 104.725 60.0956 104.402C60.0987 104.399 60.1023 104.396 60.1064 104.392C60.1343 104.369 60.1749 104.333 60.2293 104.284C60.3374 104.185 60.4892 104.043 60.6832 103.859C61.0704 103.49 61.6175 102.96 62.3023 102.291C63.6716 100.954 65.5867 99.0643 67.8652 96.8055C72.4219 92.2884 78.4293 86.297 84.4246 80.2959C90.4199 74.2948 96.4024 68.2844 100.909 63.7291C103.163 61.4514 105.047 59.5381 106.379 58.172C107.045 57.4887 107.572 56.9435 107.937 56.5585C108.121 56.3657 108.261 56.2151 108.358 56.1084C108.407 56.0546 108.442 56.0149 108.464 55.9879C108.466 55.9864 108.467 55.9848 108.468 55.9834C108.587 55.726 108.655 55.3647 108.645 54.9713C108.635 54.5753 108.548 54.1931 108.402 53.9044Z" fill="white" stroke="#E3CCCC"/>
<path d="M53.0346 22.6432L53.0346 22.6432L53.0421 22.64C53.2612 22.5487 53.5696 22.504 53.8535 22.4828C54.1538 22.4605 54.4907 22.4604 54.7993 22.4861L54.8001 22.4862C55.8339 22.574 56.6185 23.0411 57.1258 23.7123C57.6258 24.3739 57.8365 25.206 57.7912 26.0096C57.7006 27.6163 56.557 29.25 54.4297 29.25C53.4237 29.25 52.5545 28.9098 51.9374 28.2713C51.3219 27.6347 51 26.746 51 25.7266C51 25.1079 51.252 24.4564 51.6072 23.9187C51.9627 23.3806 52.4642 22.8918 53.0346 22.6432Z" fill="white" stroke="#E3CCCC"/>
<path d="M61.7655 22.9929L61.7677 22.9914C63.2078 22.0221 64.9095 22.2916 66.094 23.5828C66.4109 23.9241 66.6495 24.231 66.8003 24.578C66.955 24.9337 67 25.2906 67 25.7031C67 27.0541 66.4001 28.2897 65.3222 28.8432L65.3217 28.8434C63.1194 29.9714 60.4626 28.6707 60.2368 26.2217C60.1614 25.5259 60.2119 24.9206 60.4734 24.3718C60.7343 23.8244 61.1763 23.3941 61.7655 22.9929Z" fill="white" stroke="#E3CCCC"/>
<path d="M44.9062 31.7969C44.9062 31.351 44.9417 30.9786 45.1232 30.6035C45.2957 30.2469 45.5809 29.9307 45.9668 29.5449C46.3526 29.1591 46.6688 28.8738 47.0254 28.7013C47.4004 28.5198 47.7729 28.4844 48.2188 28.4844C50.2577 28.4844 51.7656 29.9089 51.7656 31.9141C51.7656 33.8543 50.2761 35.3438 48.3359 35.3438C46.3308 35.3438 44.9062 33.8358 44.9062 31.7969Z" fill="white" stroke="#E3CCCC"/>
<path d="M66.283 31.7554L66.2829 31.7553L66.2835 31.749C66.4141 30.3913 67.1547 29.2169 68.3031 28.7559C70.5936 27.804 73.0938 29.4418 73.0938 31.9141C73.0938 33.9192 71.5858 35.3438 69.5469 35.3438C69.1005 35.3438 68.7272 35.3082 68.3486 35.1229C67.9907 34.9478 67.6696 34.6578 67.2738 34.2621C66.8415 33.8409 66.5155 33.5177 66.3599 33.1226C66.2023 32.7222 66.238 32.2948 66.2813 31.7758L66.283 31.7554Z" fill="white" stroke="#E3CCCC"/>
<path d="M56.9396 43.4203L56.9396 43.4204L56.9343 43.4213C55.5878 43.6694 54.5771 43.7559 53.7113 43.5841C52.82 43.4072 52.1348 42.9682 51.4143 42.2851C49.551 40.5277 49.4536 37.5649 50.8383 34.6976C51.8901 32.495 54.4018 30.5067 56.8535 29.8845C57.1186 29.8087 57.55 29.7676 57.996 29.7475C58.4646 29.7263 59.006 29.7263 59.5124 29.7503C60.9769 29.7994 61.7253 29.977 62.872 30.5254L62.872 30.5254L62.8766 30.5277C65.6442 31.8867 67.4823 34.3191 67.9777 37.4106C68.1492 38.4166 68.1497 39.3074 67.932 40.1153C67.7129 40.9288 67.2816 41.6248 66.6425 42.2521C65.9502 42.9561 65.256 43.4014 64.3503 43.5812C63.4705 43.7558 62.4371 43.6696 61.0891 43.4213L61.0891 43.4213L61.0849 43.4205C60.045 43.2196 59.5182 43.1308 59.0029 43.1308C58.4882 43.1308 57.9675 43.2195 56.9396 43.4203Z" fill="white" stroke="#E3CCCC"/>
<path d="M20.6442 48.6049L20.6513 48.5803L20.6608 48.5566C20.7726 48.277 21.0366 48.1678 21.1835 48.1202C21.3578 48.0637 21.5774 48.0288 21.8297 48.0044C22.3402 47.9549 23.1069 47.9376 24.1953 47.9376H27.1484H27.6975L27.6462 48.4843L27.5761 49.2329L27.5759 49.2343L27.5058 50.0063L27.4668 50.4349L27.0372 50.4602L25.045 50.5773L23.4942 50.6686L23.4521 51.3282L23.4521 51.3288L23.415 51.922H24.0312C24.6969 51.922 25.2949 52.0189 25.6951 52.3168C25.9114 52.4778 26.0687 52.6974 26.1329 52.9698C26.1941 53.2295 26.1606 53.4942 26.0787 53.7436C26.0386 53.8773 25.9763 54.0264 25.8624 54.1598C25.741 54.3021 25.5901 54.3927 25.4263 54.4498C25.1387 54.55 24.7515 54.5626 24.2891 54.5626H23.6406V55.2345V55.9063H25.0156C25.5152 55.9063 25.9362 55.9225 26.2812 55.9655C26.6189 56.0075 26.928 56.0801 27.1755 56.2205C27.447 56.3746 27.6374 56.6078 27.7081 56.9183C27.7708 57.1938 27.7274 57.4819 27.6567 57.7475C27.622 57.8917 27.55 58.1023 27.3349 58.2608C27.1477 58.3988 26.9141 58.4489 26.6897 58.476C26.2335 58.531 25.4448 58.5231 24.093 58.5L24.0897 58.4999L21.1365 58.4296L20.6561 58.4182L20.6485 57.9377L20.5782 53.4845H20.5782L20.5781 53.4815C20.5664 52.2601 20.5664 51.1141 20.5752 50.2518C20.5796 49.821 20.5863 49.4587 20.5949 49.1923C20.5991 49.0596 20.604 48.9472 20.6096 48.8607C20.6124 48.8177 20.6156 48.7771 20.6194 48.7417C20.6221 48.7169 20.6283 48.6606 20.6442 48.6049Z" fill="white" stroke="#E3CCCC"/>
<path d="M27.8438 53.4843L27.8438 53.4843L27.9141 57.9374L27.9219 58.4295H28.4141H29.2344H30.0547H30.5314L30.5541 57.9533L30.6713 55.4924L30.7079 54.7233C31.0069 55.2376 31.3958 55.9251 31.7159 56.491C31.7957 56.6321 31.8712 56.7656 31.94 56.887L31.9427 56.8918L31.9427 56.8918C32.2363 57.3967 32.4882 57.7786 32.7559 58.0389C33.0496 58.3246 33.3597 58.4624 33.7301 58.4972C34.0203 58.53 34.3842 58.5648 34.7009 58.4343C35.0825 58.277 35.2776 57.9455 35.385 57.5597C35.4885 57.1877 35.5369 56.676 35.563 56.0021C35.5894 55.3184 35.5938 54.424 35.5938 53.2655C35.5938 52.0995 35.5702 50.9959 35.5317 50.1604C35.5125 49.7435 35.4893 49.3877 35.4627 49.1222C35.4496 48.9904 35.4348 48.8726 35.4176 48.7774C35.4092 48.7303 35.3986 48.6801 35.3849 48.6326C35.376 48.6018 35.353 48.5237 35.3018 48.4456C35.1363 48.188 34.8493 48.0772 34.6379 48.027C34.4007 47.9707 34.1276 47.9591 33.8516 47.9864L33.0576 48.0565L32.6229 48.0948L32.6021 48.5307L32.4849 50.9917L32.4554 51.6126L32.021 50.7835L32.021 50.7833C31.7056 50.1818 31.4612 49.7182 31.2603 49.3645C31.0618 49.0149 30.8903 48.7445 30.7173 48.5441C30.5334 48.3312 30.3378 48.1854 30.0945 48.0988C29.8768 48.0214 29.6453 48.0026 29.4406 47.986L29.44 47.9859L29.4388 47.9858L27.8438 53.4843ZM27.8438 53.4843L27.8438 53.4812C27.832 52.26 27.832 51.1134 27.8438 50.2469C27.8497 49.8143 27.8586 49.4481 27.8706 49.1762C27.8766 49.0408 27.8836 48.9239 27.8919 48.8319C27.8961 48.7861 27.901 48.7414 27.9071 48.701C27.9114 48.6727 27.9207 48.6146 27.9418 48.5544L27.8438 53.4843Z" fill="white" stroke="#E3CCCC"/>
<path d="M36.0469 53.4839H36.0469L36.0469 53.4808C36.0352 52.2596 36.0351 51.1071 36.0469 50.2378C36.0528 49.8037 36.0617 49.4367 36.0737 49.1658C36.0797 49.031 36.0867 48.9148 36.0951 48.8238C36.0993 48.7788 36.1043 48.734 36.1107 48.6936L36.1108 48.6929C36.1147 48.6686 36.1247 48.6056 36.1502 48.5395C36.2348 48.3147 36.4091 48.1798 36.5862 48.1036C36.7501 48.0331 36.9443 47.9993 37.1473 47.9802C37.5576 47.9414 38.1759 47.9492 39.0728 47.9841C40.1016 48.0188 40.7484 48.054 41.2058 48.1534C41.7181 48.2648 42.0056 48.459 42.3215 48.7474L42.3216 48.7473L42.3282 48.7536C43.3967 49.7658 43.6322 51.1313 43.5152 53.8711C43.4799 54.8066 43.4174 55.5775 43.2778 56.1976C43.1373 56.822 42.9087 57.3405 42.5067 57.727C42.1031 58.1151 41.5807 58.3164 40.9608 58.4181C40.3472 58.5188 39.594 58.5286 38.6869 58.4992L38.6863 58.4991L36.6003 58.4288L36.1248 58.4128L36.1172 57.937L36.0469 53.4839ZM40.239 50.82L40.2208 50.8032L40.2056 50.7861C40.2057 50.7862 40.2058 50.7863 40.2058 50.7863C40.2056 50.7864 40.1887 50.7705 40.1419 50.7455C40.0912 50.7182 40.0224 50.6892 39.9386 50.6628C39.7688 50.6093 39.5734 50.5776 39.4062 50.5776H39.1094V53.2416V55.9057H39.4062C39.7289 55.9057 39.9141 55.8793 40.0307 55.8341C40.1173 55.8004 40.1757 55.7541 40.2323 55.6395C40.3014 55.4994 40.3627 55.263 40.4016 54.8553C40.4398 54.4541 40.4531 53.9307 40.4531 53.2416C40.4531 52.2889 40.4349 51.6934 40.3841 51.3056C40.3326 50.9126 40.2587 50.8382 40.239 50.82Z" fill="white" stroke="#E3CCCC"/>
<path d="M44.4592 53.1433L44.4593 53.1431C44.8 52.027 45.135 50.9691 45.3998 50.1599C45.5321 49.7555 45.6475 49.4117 45.7375 49.1531C45.8215 48.9118 45.8962 48.7067 45.9434 48.6123C46.0842 48.3308 46.3036 48.1324 46.6312 48.0388C46.9067 47.9601 47.242 47.9619 47.6171 47.9853L47.6171 47.9853L47.625 47.9859C47.6523 47.988 47.6803 47.9901 47.709 47.9922C47.9503 48.0097 48.2391 48.0307 48.4932 48.1412C48.823 48.2845 49.048 48.5442 49.2425 48.9075C49.4309 49.2592 49.6189 49.762 49.8506 50.4674C50.0754 51.1516 50.351 52.0577 50.7144 53.2526C50.7292 53.3014 50.7442 53.3507 50.7594 53.4005C51.2834 55.1006 51.5744 56.0911 51.692 56.6978C51.7506 56.9998 51.777 57.2565 51.7453 57.48C51.7088 57.7366 51.6013 57.9154 51.468 58.059L51.4517 58.0765L51.4337 58.0925C51.2601 58.2468 51.0317 58.3582 50.8109 58.4255C50.5921 58.4923 50.3336 58.5302 50.0822 58.4967C49.7687 58.4653 49.4618 58.3696 49.2153 58.0911C48.9985 57.8459 48.8751 57.5061 48.7687 57.1276L48.7687 57.1276L48.7679 57.1248L48.6061 56.5363L47.5379 56.4838L46.5141 56.4334L46.336 57.1159C46.2769 57.3522 46.2205 57.5565 46.158 57.7257C46.0961 57.8934 46.016 58.0615 45.8929 58.2014C45.6065 58.5269 45.2275 58.5469 44.9375 58.5469C44.6193 58.5469 44.227 58.5337 43.9224 58.3446C43.545 58.1104 43.4355 57.7145 43.4355 57.3115C43.4355 56.9221 43.5342 56.4107 43.7017 55.7573C43.8719 55.0935 44.1255 54.2381 44.4592 53.1433ZM47.1362 54.3033C47.1363 54.3032 47.1366 54.3018 47.137 54.2992C47.1363 54.302 47.1361 54.3033 47.1362 54.3033ZM47.3666 53.4629C47.3028 53.6888 47.2481 53.8826 47.2099 54.0232C47.3142 54.0287 47.445 54.0312 47.6094 54.0312H47.9852L47.6901 52.9543C47.6595 52.8456 47.6289 52.7385 47.5987 52.6339C47.517 52.9303 47.4364 53.2158 47.3666 53.4629Z" fill="white" stroke="#E3CCCC"/>
<path d="M53.3437 47.9858C53.5894 48.0038 53.8502 48.0323 54.1067 48.1411C54.3751 48.255 54.5971 48.4373 54.8146 48.6948C55.2223 49.1775 55.7017 50.0379 56.5093 51.5262C56.5095 51.5265 56.5096 51.5268 56.5098 51.527L56.5593 51.6173L56.5783 50.9313L56.6486 48.4001L56.6633 47.873L57.1888 47.9156L58.056 47.9859L58.9232 48.0562L59.3828 48.0935V48.5546V53.2421V57.9296V58.3821L58.9326 58.4271L58.2294 58.4974L58.2202 58.4983L58.2109 58.4989C57.9939 58.5125 57.759 58.5059 57.5534 58.4819C57.4505 58.4699 57.3468 58.4526 57.2517 58.4283C57.1669 58.4066 57.0474 58.3694 56.9414 58.2987L56.9192 58.2839L56.8987 58.2668C56.831 58.2104 56.7739 58.1359 56.7421 58.0937C56.7007 58.0386 56.6541 57.9715 56.6042 57.8967C56.5041 57.7466 56.3799 57.5486 56.2404 57.3187C55.961 56.858 55.6121 56.2546 55.2582 55.6177L55.2582 55.6177L55.2564 55.6143L54.8436 54.8575L54.8119 55.5161L54.6947 57.9536L54.6719 58.4296H54.1953H53.2578H52.3203H51.8281L51.8204 57.9375L51.7501 53.4843H51.7501L51.75 53.4813C51.7383 52.2601 51.7383 51.1134 51.75 50.247C51.7559 49.8143 51.7648 49.4481 51.7769 49.1762C51.7829 49.0409 51.7899 48.924 51.7982 48.8319C51.8023 48.7862 51.8072 48.7415 51.8134 48.7011C51.8177 48.6728 51.8269 48.6146 51.848 48.5545C51.9685 48.2024 52.2923 48.0685 52.5167 48.0173C52.7567 47.9626 53.0438 47.9609 53.3437 47.9858ZM53.3437 47.9858C53.3445 47.9858 53.3454 47.9859 53.3462 47.986L53.3047 48.4843L53.3412 47.9856C53.342 47.9857 53.3428 47.9857 53.3437 47.9858Z" fill="white" stroke="#E3CCCC"/>
<path d="M61.6781 58.1869L61.6781 58.1869L61.6756 58.1856C61.355 58.0189 61.066 57.8286 60.8269 57.5671C60.5838 57.3014 60.4146 56.9869 60.2971 56.6017C60.0724 55.8647 60.0234 54.8094 60.0234 53.2185C60.0234 51.9531 60.0341 51.1763 60.1072 50.6429C60.1864 50.0642 60.3437 49.738 60.615 49.3803C60.7694 49.1704 60.9814 48.9472 61.1922 48.7588C61.3934 48.5789 61.631 48.3969 61.8476 48.2941C62.3314 48.0416 63.0225 47.9488 63.6746 47.9549C64.3442 47.9611 65.0665 48.0727 65.6329 48.3019L65.6351 48.3028C66.2093 48.5384 66.6841 48.9956 66.9981 49.5143C67.31 50.0296 67.4922 50.6543 67.4189 51.2575C67.3921 51.532 67.3243 51.845 67.0832 52.0797C66.8453 52.3113 66.5302 52.377 66.2479 52.4033C65.7696 52.4598 65.3093 52.3703 64.953 52.124C64.5849 51.8695 64.3594 51.466 64.3594 50.992C64.3594 50.9943 64.3591 50.9936 64.3579 50.9902C64.3515 50.9731 64.3193 50.8862 64.1631 50.7738C63.9955 50.6533 63.7794 50.5779 63.5938 50.5779C63.4459 50.5779 63.3878 50.6065 63.3605 50.6261C63.3319 50.6466 63.2724 50.7036 63.2112 50.882C63.0785 51.2681 63.0156 51.9756 63.0156 53.242C63.0156 53.8944 63.0288 54.403 63.0632 54.8007C63.098 55.2036 63.1522 55.4596 63.2174 55.6232C63.277 55.7726 63.3344 55.8181 63.3777 55.8417C63.4381 55.8746 63.5505 55.906 63.7812 55.906C64.0078 55.906 64.1157 55.8454 64.1842 55.7737C64.2667 55.6873 64.358 55.5145 64.4097 55.174C64.4126 55.1417 64.4146 55.1137 64.4157 55.0894C64.3835 55.0846 64.345 55.0801 64.2985 55.0759L64.2985 55.0759L64.2905 55.0751C63.8667 55.0297 63.4668 54.8523 63.2305 54.4978C62.9911 54.1388 62.9914 53.7069 63.1462 53.3078C63.1994 53.1486 63.2967 52.9991 63.4564 52.8858C63.608 52.7783 63.7822 52.7276 63.9453 52.6994C64.261 52.645 64.7134 52.649 65.3235 52.672L65.3235 52.672L65.3274 52.6722L66.8743 52.7425L67.327 52.7631L67.3509 53.2157L67.4212 54.5516L67.4212 54.5516L67.4213 54.5545C67.4962 56.1526 67.0716 57.3915 65.957 58.1346L65.9571 58.1346L65.9508 58.1387C65.6904 58.3067 65.348 58.4113 65.0064 58.4769C64.655 58.5444 64.2609 58.5787 63.8672 58.5818C63.1018 58.5879 62.2429 58.4765 61.6781 58.1869Z" fill="white" stroke="#E3CCCC"/>
<path d="M71.4574 58.4996V58.4996L71.456 58.4997C70.3655 58.5231 69.6052 58.518 69.0945 58.4777C68.841 58.4578 68.6253 58.4276 68.4524 58.379C68.3001 58.3361 68.0746 58.2513 67.9355 58.0428C67.8745 57.9512 67.8533 57.8543 67.8472 57.8268C67.847 57.8259 67.8469 57.8251 67.8467 57.8244C67.8366 57.7788 67.8294 57.7304 67.8239 57.6853C67.8127 57.5937 67.8039 57.4787 67.7969 57.3492C67.7826 57.0881 67.7734 56.7367 67.7685 56.3283C67.7585 55.5097 67.7652 54.4416 67.7842 53.3649C67.8033 52.2882 67.835 51.1984 67.8752 50.3362C67.8952 49.9057 67.9176 49.5281 67.942 49.2358C67.9542 49.09 67.9672 48.9611 67.9813 48.8553C67.9935 48.7637 68.0106 48.6555 68.039 48.5673C68.131 48.2731 68.3893 48.153 68.5421 48.1021C68.7118 48.0455 68.9242 48.0157 69.1628 47.9974C69.6482 47.96 70.3929 47.9609 71.4795 47.9843L71.4809 47.9843L74.3637 48.0546L74.8515 48.0665V48.5545V49.2576V49.9607V50.4438L74.3688 50.4604L72.3297 50.5307L72.3295 50.5308L70.75 50.5846V51.2498V51.9257L71.5204 51.9693L71.5221 51.9694C71.8102 51.9867 72.0525 52.0023 72.2435 52.0279C72.4241 52.0522 72.6318 52.093 72.8074 52.2036C73.0213 52.3383 73.127 52.5336 73.1726 52.7324C73.2103 52.8964 73.2109 53.0839 73.2109 53.242C73.2109 53.4 73.2103 53.5876 73.1726 53.7516C73.127 53.9503 73.0213 54.1457 72.8074 54.2803C72.6318 54.3909 72.4241 54.4318 72.2435 54.456C72.0525 54.4817 71.8102 54.4972 71.5221 54.5145L71.5204 54.5146L70.75 54.5582V55.2342V55.8994L72.3295 55.9532L72.3297 55.9532L74.3688 56.0235L74.8515 56.0402V56.5232V57.2264V57.9295V58.4175L74.3636 58.4293L71.4574 58.4996Z" fill="white" stroke="#E3CCCC"/>
<path d="M75.0192 48.6045L75.0256 48.5822L75.034 48.5606C75.1035 48.3818 75.241 48.2843 75.3169 48.2389C75.403 48.1874 75.4963 48.1522 75.579 48.1267C75.7462 48.0751 75.952 48.0387 76.1692 48.012C76.6089 47.9579 77.1754 47.9342 77.7584 47.9372C78.3434 47.9402 78.9594 47.9701 79.5008 48.0271C80.0264 48.0824 80.5321 48.1678 80.8654 48.3011L80.8654 48.3009L80.8767 48.3057C81.427 48.5416 81.8602 48.8489 82.1326 49.3496C82.3933 49.8289 82.4688 50.4191 82.4688 51.1325C82.4688 51.7658 82.3948 52.3148 82.2054 52.7953C82.0125 53.2847 81.7104 53.6763 81.2967 54.0073C81.2427 54.0506 81.2075 54.0799 81.1848 54.0996C81.2046 54.1629 81.2477 54.2684 81.3359 54.4444C81.4448 54.6618 81.6014 54.9471 81.8189 55.3411C82.0612 55.7666 82.2517 56.1301 82.3808 56.4415C82.5075 56.7472 82.595 57.0483 82.5857 57.3361C82.5754 57.6551 82.4477 57.9215 82.2224 58.1288C82.0202 58.3149 81.755 58.4388 81.4869 58.5386L81.4862 58.5389C81.325 58.5986 81.0995 58.6748 80.8524 58.6476C80.5758 58.6171 80.3616 58.4718 80.1846 58.2846C80.0166 58.107 79.8504 57.8581 79.6661 57.5469C79.4784 57.2299 79.2538 56.8164 78.9729 56.2897L78.9724 56.2887C78.6724 55.7234 78.4325 55.3411 78.2376 55.1006C78.152 54.9951 78.0868 54.9316 78.0412 54.8935C78.0337 54.9543 78.0261 55.0299 78.0189 55.1235C78.0003 55.3642 77.986 55.6856 77.9684 56.121C77.9684 56.1211 77.9684 56.1213 77.9683 56.1215L77.8981 57.9486L77.8796 58.4294H77.3984H76.4609H75.5234H75.0313L75.0235 57.9373L74.9532 53.4841H74.9532L74.9532 53.481C74.9414 52.2597 74.9414 51.1137 74.9502 50.2514C74.9546 49.8206 74.9613 49.4583 74.9699 49.1919C74.9742 49.0592 74.979 48.9468 74.9846 48.8602C74.9874 48.8172 74.9906 48.7767 74.9944 48.7413C74.9971 48.7165 75.0033 48.6601 75.0192 48.6045ZM79.3749 50.8158L79.3748 50.8159L79.3652 50.8064C79.3467 50.7878 79.2533 50.724 79.0559 50.6658C78.8734 50.612 78.6515 50.5778 78.4297 50.5778H78.0156V51.3669V52.1559H78.5234C78.7731 52.1559 79.0188 52.1296 79.2122 52.088C79.3091 52.0672 79.3834 52.0445 79.4342 52.024C79.4515 52.0171 79.4632 52.0115 79.4705 52.0078C79.5225 51.9403 79.5966 51.7466 79.5826 51.4458C79.5679 51.1306 79.4646 50.9008 79.3749 50.8158Z" fill="white" stroke="#E3CCCC"/>
<path d="M83.1855 48.2246L83.2106 48.1994L83.2391 48.1781C83.3243 48.1142 83.4134 48.0899 83.4368 48.0836L83.4387 48.083C83.4776 48.0724 83.5166 48.0649 83.5494 48.0596C83.6165 48.0485 83.697 48.0397 83.7835 48.0323C83.9587 48.0173 84.1928 48.0053 84.4661 47.9964C85.0146 47.9785 85.7434 47.9726 86.5232 47.9844L86.5232 47.9844L86.528 47.9845L89.364 48.0548L89.8516 48.0669V48.5547V49.2578V49.9609V50.444L89.3688 50.4606L87.3297 50.531L87.3295 50.531L85.75 50.5848V51.25V51.9259L86.5204 51.9695L86.5221 51.9696C86.8102 51.9869 87.0525 52.0025 87.2435 52.0281C87.4241 52.0524 87.6318 52.0932 87.8074 52.2038C88.0213 52.3385 88.127 52.5338 88.1726 52.7326C88.2103 52.8966 88.2109 53.0841 88.2109 53.2422C88.2109 53.4002 88.2103 53.5878 88.1726 53.7518C88.127 53.9505 88.0213 54.1459 87.8074 54.2805C87.6318 54.3911 87.4241 54.432 87.2435 54.4563C87.0525 54.4819 86.8102 54.4974 86.5221 54.5147L86.5204 54.5148L85.75 54.5584V55.2344V55.8996L87.3295 55.9534L87.3297 55.9534L89.3688 56.0237L89.8516 56.0404V56.5234V57.2266V57.9297V58.418L89.3634 58.4295L86.3868 58.4999L86.3867 58.4999L83.3867 58.5702L82.875 58.5822V58.0703V53.4062C82.875 52.1251 82.8926 50.9357 82.9222 50.0526C82.9369 49.612 82.9548 49.2426 82.9753 48.9745C82.9855 48.8418 82.997 48.7253 83.0105 48.6345C83.017 48.5902 83.0257 48.5406 83.0379 48.4936C83.044 48.4705 83.0535 48.4375 83.0685 48.4015C83.079 48.3761 83.1122 48.2979 83.1855 48.2246Z" fill="white" stroke="#E3CCCC"/>
<path d="M90.5469 57.6719L90.0806 57.8524C90.0415 57.7515 90.0193 57.6308 90.0041 57.5282C89.9874 57.4151 89.9733 57.2805 89.9613 57.1312C89.9372 56.8321 89.9196 56.4521 89.9075 56.0233C89.8835 55.1644 89.8813 54.0889 89.8975 53.0295C89.9137 51.9703 89.9483 50.9204 89.9984 50.1131C90.0234 49.7107 90.0526 49.3607 90.0865 49.0973C90.1033 48.9669 90.1226 48.8467 90.1458 48.7477C90.1572 48.6987 90.1721 48.6438 90.1924 48.5907C90.2071 48.5522 90.2468 48.4523 90.3339 48.3652C90.4838 48.2154 90.6939 48.1459 90.8347 48.1076C91.0005 48.0625 91.1962 48.0297 91.4033 48.0057C91.8197 47.9573 92.3334 47.9388 92.8568 47.9463C93.3815 47.9539 93.9287 47.9878 94.414 48.0479C94.8859 48.1063 95.3423 48.1943 95.6606 48.3273C96.0043 48.469 96.312 48.6545 96.5692 48.9241C96.8274 49.1948 97.0112 49.5257 97.1421 49.9254C97.3957 50.6993 97.4687 51.7943 97.4687 53.3594C97.4687 54.3776 97.434 55.2135 97.3171 55.8878C97.1999 56.5637 96.9925 57.126 96.6098 57.556C96.2216 57.9923 95.7036 58.2362 95.0784 58.3731C94.4624 58.5079 93.7052 58.5469 92.7969 58.5469C91.9494 58.5469 91.3739 58.5305 90.992 58.4668C90.7994 58.4347 90.6114 58.3842 90.4509 58.2883C90.2712 58.1809 90.1493 58.031 90.0802 57.8514L90.5469 57.6719ZM94.4766 53.2422C94.4766 52.126 94.4635 51.5378 94.4093 51.1892C94.3835 51.0234 94.3532 50.9491 94.3325 50.9122C94.3164 50.8834 94.2945 50.8553 94.2331 50.8078C94.1759 50.7678 94.0426 50.7069 93.846 50.6558C93.6541 50.606 93.4506 50.5781 93.2891 50.5781H93.0156V53.2422V55.9062H93.2891C93.6587 55.9062 93.8807 55.8824 94.0261 55.8335C94.1399 55.7952 94.2 55.7451 94.2541 55.6436C94.3239 55.5128 94.3869 55.2853 94.4261 54.8754C94.4646 54.4729 94.4766 53.9444 94.4766 53.2422Z" fill="white" stroke="#E3CCCC"/>
<path d="M34.6165 59.1798L34.6165 59.1798L34.6209 59.1787C35.1247 59.0528 35.871 59.0471 36.5609 59.1071C37.2511 59.1671 37.9849 59.3016 38.4596 59.511L38.4597 59.5109L38.4692 59.5154C38.8639 59.6996 39.2213 59.9535 39.3849 60.3678C39.5464 60.7765 39.4683 61.2141 39.3136 61.6393L39.3138 61.6394L39.3094 61.6507C39.2145 61.8931 39.0722 62.2482 38.716 62.4041C38.5432 62.4797 38.3682 62.4878 38.2189 62.4783C38.071 62.469 37.9065 62.439 37.7346 62.4034L37.7336 62.4032C36.4389 62.1325 35.6475 62.0691 35.2147 62.1551C35.0118 62.1955 34.9624 62.2547 34.9529 62.2678C34.9444 62.2797 34.911 62.3338 34.9296 62.4995C34.9344 62.5068 34.9429 62.5187 34.9568 62.535C35.0027 62.589 35.0854 62.6658 35.2235 62.7661C35.4999 62.9668 35.933 63.2158 36.5595 63.5291L36.5596 63.529L36.5655 63.5321C37.6206 64.0774 38.3845 64.5764 38.9014 65.1805C39.4361 65.8055 39.6737 66.503 39.763 67.3704L39.7632 67.3727C39.9083 68.8498 39.3491 70.0795 38.2826 70.8329C37.2333 71.5742 35.7588 71.81 34.1276 71.4742C32.9812 71.2471 32.0492 70.7115 31.5685 70.0179C31.3242 69.6653 31.1854 69.2523 31.2348 68.8211C31.2847 68.3854 31.519 67.9991 31.8924 67.6924C32.0048 67.5991 32.1442 67.5142 32.3205 67.4739C32.4957 67.4339 32.6666 67.4473 32.8286 67.4862C33.127 67.5578 33.485 67.7411 33.9332 67.9939L33.9332 67.9939L33.9356 67.9953C34.57 68.3578 35.0118 68.5121 35.3488 68.534C35.6547 68.5538 35.9146 68.4674 36.2081 68.2288L36.2098 68.2275C36.3721 68.0968 36.411 68.008 36.4197 67.9718C36.4249 67.9505 36.433 67.8998 36.3644 67.7911C36.2002 67.5311 35.7382 67.1663 34.8291 66.7232C33.6311 66.1476 32.7937 65.6409 32.2678 65.016C31.7136 64.3574 31.5469 63.6216 31.5469 62.7107C31.5469 61.8248 31.8011 61.0559 32.3432 60.4429C32.8781 59.8381 33.6534 59.43 34.6165 59.1798Z" fill="white" stroke="#E3CCCC"/>
<path d="M78.5867 63.0421L78.5866 63.0421L78.5863 63.0348C78.548 62.0512 78.7574 61.2032 79.2778 60.5368C79.7958 59.8733 80.5725 59.4531 81.5454 59.2249C82.1721 59.066 83.0003 59.0461 83.7469 59.1162C84.4777 59.1848 85.2475 59.35 85.705 59.6398L85.705 59.6398L85.7106 59.6434C86.5043 60.161 86.6678 61.2482 86.1669 62.0371C86.0165 62.2835 85.7813 62.4322 85.5034 62.4776C85.2547 62.5182 84.9924 62.4736 84.7407 62.3957C84.0564 62.2283 83.4236 62.1366 82.931 62.1206C82.6821 62.1124 82.4826 62.1241 82.3367 62.1494C82.199 62.1732 82.1528 62.2018 82.1523 62.2009C82.1522 62.2009 82.1524 62.2007 82.1526 62.2005L82.1482 62.2042C82.0186 62.3121 82.0038 62.3714 82.003 62.375C82.003 62.3751 82.003 62.3751 82.003 62.3752C82.0028 62.3758 82.002 62.3787 82.0045 62.3887C82.0077 62.4019 82.0181 62.4315 82.0497 62.4785C82.1166 62.578 82.2518 62.7159 82.495 62.8901C82.7339 63.0612 83.0534 63.2508 83.4629 63.4613L83.4629 63.4613L83.4657 63.4627C84.8499 64.1849 85.8533 64.9895 86.4052 65.9328C86.9728 66.9029 87.0288 67.9606 86.6362 69.0863L86.6358 69.0873C85.9074 71.1604 83.4173 72.0176 80.9401 71.4239C80.2648 71.2678 79.6124 70.9582 79.1201 70.6005C78.8737 70.4214 78.6528 70.2198 78.4886 70.0048C78.3308 69.7981 78.1875 69.5292 78.1875 69.2263C78.1875 69.0988 78.2206 68.9781 78.2511 68.889C78.2842 68.7922 78.3283 68.6931 78.3767 68.5981C78.4733 68.4083 78.6013 68.2065 78.7365 68.0308L78.7425 68.0231L78.7487 68.0156L79.2175 67.4531L79.4816 67.1362L79.8429 67.3352L80.9913 67.9681L80.9913 67.9681L80.9941 67.9696C81.6625 68.3435 82.1423 68.5067 82.493 68.5312C82.8101 68.5534 83.0312 68.4646 83.2324 68.2634C83.398 68.0977 83.4418 67.9992 83.4515 67.956C83.4515 67.9556 83.4516 67.9552 83.4517 67.9547C83.4554 67.9389 83.4635 67.9031 83.4001 67.8112C83.3234 67.7001 83.1666 67.5476 82.8767 67.3475C82.5925 67.1513 82.2104 66.9294 81.7146 66.6699C80.6571 66.1232 79.893 65.6145 79.3851 65.0398C78.8573 64.4425 78.6272 63.7985 78.5867 63.0421Z" fill="white" stroke="#E3CCCC"/>
<path d="M43.2101 70.8495L43.1848 71.2791L42.7562 71.3181L41.9846 71.3882C41.8091 71.4055 41.6295 71.4219 41.4644 71.4219C41.2983 71.4218 41.1124 71.4057 40.9311 71.3375C40.5123 71.1798 40.3035 70.8229 40.1911 70.3929C40.0829 69.9791 40.0351 69.3951 40.0106 68.602C39.9858 67.7983 39.9844 66.7335 39.9844 65.3357C39.9844 63.5192 40.0019 62.2188 40.0465 61.3435C40.0688 60.9074 40.0984 60.5628 40.1388 60.3072C40.1589 60.18 40.1838 60.0611 40.2169 59.958C40.2453 59.8695 40.2989 59.7282 40.4121 59.615C40.509 59.5181 40.6248 59.463 40.7052 59.4308C40.7943 59.3951 40.8923 59.3673 40.9902 59.3449C41.1866 59.2998 41.4264 59.2662 41.6869 59.2412C42.2104 59.191 42.8665 59.1711 43.531 59.1785C44.1963 59.186 44.8821 59.221 45.466 59.2835C46.0231 59.3431 46.5648 59.4345 46.8864 59.5872L46.8864 59.5872L46.8917 59.5898C47.5288 59.9015 48.0053 60.3404 48.3096 60.9777C48.6049 61.5962 48.7188 62.3618 48.7188 63.2967C48.7188 63.9946 48.7057 64.4833 48.5671 64.8991C48.4213 65.3366 48.1512 65.6529 47.7914 66.0476L47.7909 66.0481C47.4229 66.4506 47.1329 66.758 46.6633 66.9346C46.236 67.0953 45.6812 67.1373 44.8325 67.1939L43.4188 67.3012L43.3273 68.8573L43.2101 70.8495ZM45.071 62.3458L45.071 62.3458L45.0688 62.3442C44.8607 62.1956 44.4121 62.0791 43.9474 62.071C43.725 62.0672 43.5399 62.0895 43.4177 62.1245C43.4029 62.1288 43.3902 62.1328 43.3794 62.1366C43.3782 62.1466 43.3769 62.1579 43.3755 62.1705C43.366 62.2607 43.3585 62.3825 43.3543 62.5287C43.346 62.8203 43.3515 63.186 43.374 63.5467L43.3741 63.5467L43.3744 63.5525L43.4221 64.4921L44.0106 64.5322L44.011 64.5322C44.6498 64.5763 44.9483 64.4678 45.0983 64.3308C45.2453 64.1966 45.375 63.9195 45.375 63.2967C45.375 62.9226 45.3445 62.7292 45.2993 62.6101C45.264 62.5174 45.2109 62.4445 45.071 62.3458ZM43.3238 62.1614C43.324 62.1614 43.3262 62.1602 43.3297 62.1575C43.3254 62.1599 43.3236 62.1613 43.3238 62.1614Z" fill="white" stroke="#E3CCCC"/>
<path d="M49.238 59.8552L49.245 59.8306L49.2545 59.8068C49.3172 59.6501 49.4299 59.5505 49.5245 59.4903C49.6178 59.431 49.7196 59.3928 49.8122 59.3659C49.9971 59.3122 50.236 59.2783 50.5201 59.2541C51.0949 59.2052 51.9703 59.1878 53.2344 59.1878C54.7324 59.1878 55.613 59.1987 56.1283 59.2619C56.3803 59.2928 56.6181 59.3431 56.8077 59.4591C57.0344 59.5978 57.1356 59.7919 57.1835 59.9703C57.2418 60.1573 57.2505 60.373 57.2404 60.5535C57.2298 60.7451 57.1946 60.957 57.1285 61.1414C57.0762 61.2959 56.9904 61.4704 56.8171 61.6161C56.6517 61.755 56.4507 61.8302 56.2405 61.8796C55.8366 61.9747 55.1973 62.0162 54.196 62.0623C54.1956 62.0623 54.1952 62.0623 54.1948 62.0623L52.3516 62.1554V62.9691V63.7847L53.1679 63.8292L53.17 63.8293C53.7989 63.8663 54.3502 63.9789 54.7612 64.1976C55.1892 64.4253 55.5156 64.8039 55.5156 65.3363C55.5156 65.8871 55.0857 66.245 54.6881 66.4369C54.2639 66.6417 53.7107 66.7503 53.1172 66.7503H52.4687V67.5394V68.3285H54.0312C54.6062 68.3285 55.1594 68.3524 55.5909 68.3888C55.8059 68.407 55.9972 68.4288 56.149 68.4537C56.2243 68.4661 56.2975 68.4804 56.3624 68.4974C56.4102 68.51 56.513 68.5383 56.6055 68.5999C56.9532 68.8318 57.1505 69.2092 57.2252 69.5751C57.3003 69.9425 57.2656 70.3592 57.078 70.7202C57.0052 70.8649 56.8953 71.0397 56.6779 71.1691C56.4823 71.2854 56.2472 71.3358 55.9875 71.3645C55.4705 71.4216 54.5923 71.4141 53.0627 71.3909L53.0627 71.3909L53.0597 71.3909L49.7316 71.3205L49.2487 71.3103L49.2422 70.8273L49.1719 65.5539H49.1719L49.1719 65.5513C49.1601 64.1077 49.1601 62.7572 49.169 61.746C49.1734 61.2407 49.18 60.8182 49.1885 60.5104C49.1928 60.3569 49.1976 60.2288 49.2031 60.1319C49.2058 60.0838 49.2089 60.0394 49.2126 60.0017L49.2127 60.0005C49.2151 59.9757 49.2211 59.9141 49.238 59.8552Z" fill="white" stroke="#E3CCCC"/>
<path d="M60.9359 68.2996L60.9358 68.2996C60.8796 68.2394 60.7986 68.1268 60.7447 67.6657C60.69 67.1986 60.6719 66.4662 60.6719 65.2424C60.6719 63.7464 60.6742 63.0652 60.7402 62.6968C60.7692 62.5352 60.8017 62.4944 60.8132 62.4807C60.8381 62.4508 60.88 62.4171 61.0433 62.3166L61.0524 62.3111L61.0612 62.3051C61.3817 62.0885 61.6531 62.0813 61.8512 62.1612C62.0578 62.2445 62.2823 62.4624 62.4132 62.8831L62.4162 62.8927L62.4163 62.8927C62.6008 63.4461 62.853 63.9255 63.276 64.1858C63.7298 64.465 64.2379 64.4117 64.724 64.2362L60.9359 68.2996ZM60.9359 68.2996L60.9385 68.3025M60.9359 68.2996L60.9385 68.3025M60.9385 68.3025C61.1562 68.5394 61.5129 68.595 61.8741 68.4354C62.2334 68.2767 62.4844 67.9488 62.4844 67.5627C62.4844 67.1487 62.6273 66.7576 63.0101 66.5041C63.345 66.2825 63.7916 66.2189 64.2734 66.2189C64.7903 66.2189 65.2558 66.4153 65.5375 66.8524C65.8018 67.2625 65.8434 67.7932 65.7511 68.3475C65.5824 69.372 65.1476 70.1824 64.3935 70.7276C63.6537 71.2626 62.6699 71.4956 61.4904 71.508C59.686 71.5325 58.3806 71.0077 57.6944 69.7017C57.4753 69.3187 57.3579 68.9107 57.2925 68.257C57.2281 67.6129 57.2109 66.6916 57.2109 65.2658C57.2109 64.3047 57.2211 63.5368 57.263 62.9169C57.3047 62.2995 57.3795 61.7988 57.5222 61.3829C57.6695 60.9533 57.8868 60.621 58.1955 60.3407C58.4909 60.0725 58.8546 59.8665 59.2659 59.6636C60.1426 59.207 61.2258 59.0998 62.2247 59.252C63.2239 59.4042 64.2097 59.8271 64.8685 60.5133L64.8695 60.5143C65.1444 60.8023 65.3515 61.0893 65.4877 61.4297C65.6228 61.7675 65.6745 62.1244 65.6873 62.5314L65.6873 62.5335M60.9385 68.3025L65.6873 62.5335M65.6873 62.5335C65.6932 62.7524 65.6942 62.9488 65.6789 63.1185M65.6873 62.5335L65.6789 63.1185M65.6789 63.1185C65.6636 63.2886 65.6296 63.4663 65.5437 63.6322M65.6789 63.1185L65.5437 63.6322M65.5437 63.6322C65.3576 63.992 65.0133 64.1321 64.7243 64.2362L65.5437 63.6322Z" fill="white" stroke="#E3CCCC"/>
<path d="M66.3474 59.8549L66.3561 59.8244L66.3685 59.7953C66.4364 59.6369 66.5535 59.532 66.6432 59.4682C66.7388 59.4001 66.8457 59.3485 66.9495 59.3099C67.1567 59.2327 67.4035 59.1876 67.6484 59.1876C67.6937 59.1876 67.74 59.1873 67.7864 59.1871C67.9133 59.1864 68.0412 59.1857 68.1531 59.1901C68.3087 59.1961 68.4858 59.2124 68.6567 59.2709C68.8409 59.334 69.0083 59.4425 69.1427 59.6133C69.2696 59.7747 69.3476 59.9671 69.4008 60.1707C69.5039 60.5656 69.5437 61.1307 69.5622 61.9103C69.5788 62.6046 69.5785 63.5104 69.5782 64.6834C69.5782 64.8487 69.5781 65.0193 69.5781 65.1954C69.5781 66.6342 69.5767 67.7281 69.5519 68.5525C69.5274 69.3662 69.4796 69.9619 69.3721 70.3819C69.2608 70.8164 69.0537 71.1791 68.6321 71.3386C68.4498 71.4076 68.2629 71.4232 68.0969 71.4228C67.9321 71.4225 67.7525 71.4057 67.5779 71.3885L66.8063 71.3183L66.3576 71.2776L66.3516 70.8271L66.2813 65.5536H66.2813L66.2813 65.551C66.2695 64.1074 66.2695 62.7569 66.2783 61.7457C66.2827 61.2405 66.2894 60.8179 66.2979 60.5101C66.3022 60.3567 66.307 60.2285 66.3125 60.1316C66.3152 60.0835 66.3183 60.0392 66.322 60.0015L66.3221 60.0002C66.3245 59.9754 66.3305 59.9139 66.3474 59.8549Z" fill="white" stroke="#E3CCCC"/>
<path d="M70.5661 59.8552L70.5731 59.8306L70.5826 59.8068C70.6453 59.6501 70.758 59.5505 70.8526 59.4903C70.9459 59.431 71.0477 59.3928 71.1404 59.3659C71.3252 59.3122 71.5641 59.2783 71.8482 59.2541C72.423 59.2052 73.2984 59.1878 74.5625 59.1878C76.0605 59.1878 76.9411 59.1987 77.4564 59.2619C77.7084 59.2928 77.9462 59.3431 78.1358 59.4591C78.3626 59.5978 78.4638 59.7919 78.5116 59.9703C78.5699 60.1573 78.5786 60.373 78.5686 60.5535C78.5579 60.7451 78.5227 60.957 78.4566 61.1414C78.4044 61.2959 78.3186 61.4704 78.1453 61.6161C77.9799 61.755 77.7788 61.8302 77.5686 61.8796C77.1647 61.9747 76.5255 62.0162 75.5241 62.0623C75.5237 62.0623 75.5234 62.0623 75.523 62.0623L73.6797 62.1554V62.9691V63.7847L74.496 63.8292L74.4981 63.8293C75.127 63.8663 75.6784 63.9789 76.0894 64.1976C76.5173 64.4253 76.8438 64.8039 76.8438 65.3363C76.8438 65.8871 76.4138 66.245 76.0162 66.4369C75.592 66.6417 75.0388 66.7503 74.4453 66.7503H73.7969V67.5394V68.3285H75.3594C75.9344 68.3285 76.4876 68.3524 76.9191 68.3888C77.134 68.407 77.3254 68.4288 77.4771 68.4537C77.5524 68.4661 77.6256 68.4804 77.6905 68.4974C77.7384 68.51 77.8411 68.5383 77.9336 68.5999C78.2814 68.8318 78.4786 69.2092 78.5534 69.5751C78.6284 69.9425 78.5938 70.3592 78.4061 70.7202C78.3334 70.8649 78.2234 71.0397 78.006 71.1691C77.8105 71.2854 77.5754 71.3358 77.3156 71.3645C76.7987 71.4216 75.9204 71.4141 74.3909 71.3909L74.3909 71.3909L74.3879 71.3909L71.0598 71.3205L70.5768 71.3103L70.5704 70.8273L70.5001 65.5539H70.5L70.5 65.5513C70.4883 64.1077 70.4883 62.7572 70.4971 61.746C70.5015 61.2407 70.5081 60.8182 70.5167 60.5104C70.5209 60.3569 70.5258 60.2288 70.5312 60.1319C70.534 60.0838 70.5371 60.0394 70.5407 60.0017L70.5409 60.0005C70.5433 59.9757 70.5493 59.9141 70.5661 59.8552Z" fill="white" stroke="#E3CCCC"/>
<path d="M56.8081 75.5876L56.8274 75.5538L56.8518 75.5233C56.9486 75.4023 57.0762 75.3488 57.1231 75.3297C57.1902 75.3025 57.262 75.2823 57.3286 75.2666C57.4636 75.2348 57.6301 75.2094 57.811 75.1893C58.1759 75.1488 58.646 75.1247 59.1406 75.1247H60.8984H61.4156L61.3982 75.6416L61.2342 80.4893C61.2342 80.49 61.2342 80.4906 61.2342 80.4912C61.1642 83.1711 61.024 85.9563 60.9261 86.7003L60.7861 87.9836L60.7404 88.4027L60.3196 88.4285L59.1743 88.4986C58.8315 88.5238 58.4938 88.5177 58.2225 88.4916C58.0874 88.4785 57.9584 88.4596 57.8485 88.4335C57.794 88.4205 57.7342 88.4035 57.6765 88.3803C57.6298 88.3616 57.5349 88.3198 57.4511 88.2361C57.3763 88.1612 57.3422 88.0803 57.3323 88.0564C57.317 88.0201 57.3067 87.9858 57.2997 87.9605C57.2856 87.9089 57.2743 87.8516 57.2648 87.7965C57.2456 87.6841 57.2268 87.5364 57.2084 87.3644C57.1712 87.0182 57.1321 86.5419 57.0928 85.9825C57.014 84.8623 56.9332 83.3901 56.8658 81.9171C56.7983 80.4441 56.7439 78.9664 56.7181 77.8348C56.7053 77.2697 56.6995 76.787 56.7029 76.433C56.7047 76.2569 56.7087 76.1063 56.716 75.9909C56.7196 75.934 56.7245 75.8775 56.7317 75.8272C56.7353 75.8022 56.7405 75.7715 56.7485 75.7393C56.7544 75.7153 56.7703 75.6536 56.8081 75.5876Z" fill="white" stroke="#E3CCCC"/>
<path d="M56.5704 90.5255C56.7243 90.1877 56.9785 89.9355 57.2982 89.6768C57.8267 89.2289 58.4056 88.9633 59.0237 88.9672C59.645 88.9711 60.2206 89.2469 60.7402 89.7132L60.7412 89.7141C61.9121 90.7707 61.8667 92.2454 61.1855 93.244C60.503 94.2446 59.1499 94.8116 57.7571 94.0657C57.3044 93.8259 56.9478 93.5318 56.7135 93.107C56.4846 92.6918 56.4033 92.2062 56.3907 91.6433L56.3906 91.6433V91.6322C56.3906 91.2216 56.4179 90.8602 56.5704 90.5255Z" fill="white" stroke="#E3CCCC"/>
</g>
<defs>
<filter id="filter0_d_132_32" x="0.428055" y="0.40918" width="117.154" height="117.147" filterUnits="userSpaceOnUse" color-interpolation-filters="sRGB">
<feFlood flood-opacity="0" result="BackgroundImageFix"/>
<feColorMatrix in="SourceAlpha" type="matrix" values="0 0 0 0 0 0 0 0 0 0 0 0 0 0 0 0 0 0 127 0" result="hardAlpha"/>
<feOffset dy="4"/>
<feGaussianBlur stdDeviation="2"/>
<feComposite in2="hardAlpha" operator="out"/>
<feColorMatrix type="matrix" values="0 0 0 0 0 0 0 0 0 0 0 0 0 0 0 0 0 0 0.25 0"/>
<feBlend mode="normal" in2="BackgroundImageFix" result="effect1_dropShadow_132_32"/>
<feBlend mode="normal" in="SourceGraphic" in2="effect1_dropShadow_132_32" result="shape"/>
</filter>
</defs>
</svg>
