<svg width="60" height="60" viewBox="0 0 60 60" fill="none" xmlns="http://www.w3.org/2000/svg">
<path d="M43.1649 25.5386C45.8302 25.565 48.3788 26.6355 50.2636 28.5202C52.1484 30.405 53.219 32.9536 53.2454 35.6189C53.2793 38.2502 52.1853 40.7648 50.4059 42.6325C48.4863 44.6474 45.8947 45.6644 43.1649 45.6995C39.1686 45.7508 39.1638 51.9525 43.1649 51.9011C52.1094 51.786 59.3319 44.5634 59.4471 35.6189C59.5621 26.6737 51.936 19.4496 43.1649 19.3369C39.1638 19.2855 39.1686 25.4872 43.1649 25.5386ZM16.7146 45.6624C14.0492 45.636 11.5005 44.5655 9.61576 42.6807C7.73098 40.7959 6.66043 38.2472 6.634 35.5819C6.60019 32.9505 7.69396 30.436 9.47351 28.5679C11.393 26.5531 13.9845 25.5365 16.7145 25.5013C20.7106 25.4499 20.7155 19.2481 16.7145 19.2996C7.76984 19.4146 0.547335 26.637 0.432375 35.5819C0.317414 44.527 7.94327 51.7514 16.7146 51.8641C20.7156 51.9154 20.7107 45.7138 16.7146 45.6624Z"/>
<path d="M19.9031 22.512C19.9294 19.8467 20.9999 17.298 22.8846 15.4132C24.7694 13.5285 27.3181 12.458 29.9834 12.4317C32.6147 12.3979 35.1292 13.4917 36.997 15.2712C39.0119 17.1907 40.0288 19.7821 40.0639 22.512C40.1153 26.5081 46.3171 26.513 46.2657 22.512C46.1506 13.5675 38.9279 6.345 29.9834 6.23004C21.0382 6.11508 13.8142 13.7407 13.7015 22.512C13.6499 26.513 19.8517 26.5081 19.9031 22.512Z"/>
<path d="M31.9359 27.7194C32.9051 28.6886 32.9051 30.2598 31.9359 31.2289L24.7353 38.4298C23.766 39.3988 22.1948 39.3988 21.2258 38.4298C20.2565 37.4603 20.2565 35.889 21.2258 34.9201L28.4265 27.7194C29.3954 26.7501 30.9668 26.7501 31.9359 27.7194Z"/>
<path d="M28.4279 27.7195C29.3969 26.7504 30.9682 26.7504 31.9372 27.7195L39.1382 34.9204C40.1072 35.8892 40.1072 37.4607 39.1382 38.43C38.169 39.399 36.5975 39.399 35.6285 38.43L28.4279 31.2293C27.4584 30.26 27.4584 28.6887 28.4279 27.7195Z"/>
<path d="M30.1198 37.1541C31.5244 37.1541 32.6629 38.2927 32.6629 39.697V50.1317C32.6629 51.5361 31.5243 52.6745 30.1198 52.6745C28.7157 52.6745 27.5771 51.5359 27.5771 50.1317V39.697C27.5771 38.2926 28.7157 37.1541 30.1198 37.1541Z"/>
</svg>
