<svg width="15" height="15" viewBox="0 0 15 15" fill="none" xmlns="http://www.w3.org/2000/svg">
<path fill-rule="evenodd" clip-rule="evenodd" d="M15 7.5C15 11.6421 11.6421 15 7.5 15C3.35791 15 0 11.6421 0 7.5C0 3.35786 3.35791 0 7.5 0C11.6421 0 15 3.35786 15 7.5ZM6.43945 7.49998L4.46973 5.53033C4.17676 5.23744 4.17676 4.76257 4.46973 4.46967C4.76257 4.17678 5.23743 4.17677 5.5304 4.46967L7.50012 6.43932L9.46973 4.46967C9.7627 4.17677 10.2375 4.17678 10.5304 4.46967C10.8234 4.76257 10.8234 5.23744 10.5304 5.53033L8.56079 7.49998L10.5304 9.46968C10.8232 9.76257 10.8232 10.2374 10.5303 10.5303C10.2374 10.8232 9.76257 10.8232 9.4696 10.5303L7.5 8.56066L5.5304 10.5303C5.23755 10.8232 4.7627 10.8232 4.46973 10.5303C4.17688 10.2374 4.17688 9.76256 4.46973 9.46967L6.43945 7.49998Z" fill="#AC2424"/>
</svg>
