<svg width="11" height="11" viewBox="0 0 11 11" fill="none" xmlns="http://www.w3.org/2000/svg">
<path d="M3.72411 0.603906C3.65757 0.646572 3.5519 0.800645 3.20943 1.34583L2.7789 2.03323L2.35424 2.04745C2.00982 2.05931 1.90023 2.07116 1.7789 2.11145C1.16442 2.31293 0.692796 2.85812 0.526455 3.555L0.481445 3.73989V6.29988V8.85987L0.526455 9.04475C0.70258 9.78668 1.23096 10.3579 1.89045 10.5167C2.03135 10.5523 2.3973 10.5547 5.54994 10.5499L9.05287 10.5428L9.19964 10.4883C9.37968 10.4196 9.63604 10.2773 9.75737 10.1754C10.0822 9.90519 10.3308 9.49275 10.4364 9.04475L10.4814 8.85987V6.29988C10.4814 3.88685 10.4795 3.73041 10.4462 3.58582C10.3582 3.2113 10.1938 2.88893 9.95503 2.62345C9.78869 2.43619 9.65953 2.33664 9.43448 2.21812C9.18399 2.08775 8.9746 2.04508 8.56364 2.04508H8.21139L7.77107 1.34583C7.40904 0.76746 7.31902 0.637091 7.25248 0.599165C7.1742 0.554128 7.12724 0.551758 5.48732 0.551758H3.80434L3.72411 0.603906ZM7.41882 1.91708C7.7515 2.45279 7.85718 2.60686 7.92763 2.65664C8.01569 2.72064 8.01961 2.72064 8.49514 2.73486C9.02352 2.75145 9.08027 2.7633 9.32685 2.91738C9.60473 3.09278 9.85131 3.47678 9.90415 3.82048C9.91589 3.8987 9.92372 4.84211 9.92372 6.32121C9.92372 8.34787 9.9198 8.71527 9.89436 8.83142C9.7926 9.30549 9.45796 9.68712 9.03135 9.81986C8.88458 9.86727 8.80043 9.86727 5.48145 9.86727C2.16246 9.86727 2.07831 9.86727 1.93154 9.81986C1.50493 9.68712 1.17029 9.30549 1.06853 8.83142C1.02548 8.62757 1.02548 3.97219 1.06853 3.76833C1.16442 3.32271 1.47557 2.94582 1.88066 2.78938C1.96481 2.75856 2.09006 2.74671 2.47753 2.73486C2.96481 2.72064 2.96677 2.72064 3.05483 2.65664C3.12528 2.60686 3.23096 2.45279 3.56364 1.91708L3.98438 1.24153H5.49123H6.99808L7.41882 1.91708Z" fill="black"/>
<path d="M5.24656 3.60717C4.49313 3.80865 3.90996 4.46761 3.68687 5.37546C3.63795 5.5722 3.63403 5.6196 3.63403 6.02731C3.63403 6.40419 3.6399 6.4919 3.67513 6.64834C3.8356 7.34049 4.21133 7.91411 4.71623 8.227C5.05673 8.44033 5.3992 8.53278 5.76319 8.50907C6.61838 8.45218 7.33658 7.78848 7.60272 6.80952C7.85125 5.8922 7.65165 4.92035 7.07435 4.24954C6.81212 3.94613 6.54206 3.7565 6.19959 3.64272C5.9491 3.55739 5.49313 3.5408 5.24656 3.60717ZM6.13306 4.33724C6.37572 4.43917 6.50292 4.53872 6.70644 4.78287C6.85713 4.96539 6.89822 5.03176 6.9765 5.22138C7.02542 5.34464 7.08217 5.51531 7.09979 5.60064C7.14675 5.8116 7.1448 6.26671 7.09783 6.4753C6.97259 7.02997 6.65752 7.47323 6.23873 7.68419C5.39333 8.10848 4.44812 7.53011 4.22699 6.45397C4.17219 6.18849 4.18198 5.74286 4.24851 5.50583C4.3855 5.01516 4.64186 4.6525 5.00585 4.43442C5.25047 4.28746 5.40311 4.24954 5.70644 4.25902C5.92953 4.26376 5.98237 4.27561 6.13306 4.33724Z" fill="black"/>
</svg>
