<svg width="10" height="10" viewBox="0 0 10 10" fill="none" xmlns="http://www.w3.org/2000/svg">
<g clip-path="url(#clip0_76_43)">
<path d="M0.978401 0.0292969C0.630744 0.105469 0.298713 0.365234 0.14051 0.685547C-0.00988075 0.988281 -0.000115119 0.675781 -0.000115119 5C-0.000115119 9.32422 -0.00988075 9.01172 0.14051 9.31445C0.300666 9.63867 0.630744 9.89453 0.988166 9.9707C1.19129 10.0137 8.80848 10.0137 9.0116 9.9707C9.4784 9.87305 9.87293 9.47852 9.97059 9.01172C10.0136 8.80859 10.0136 1.19141 9.97059 0.988281C9.87293 0.521484 9.4784 0.126953 9.0116 0.0292969C8.81434 -0.0117188 1.17176 -0.0117188 0.978401 0.0292969ZM9.00574 0.685547C9.14442 0.75 9.24988 0.855469 9.31434 0.994141L9.36512 1.10352L9.37098 3.22461L9.37488 5.34766L8.90223 4.86523C8.64051 4.60156 8.21864 4.17383 7.96473 3.91602L7.49989 3.44727L6.91785 4.0332C6.59754 4.35547 5.89832 5.0625 5.36512 5.60547L4.39637 6.5918L3.75574 5.95508L3.11512 5.31641L1.87488 6.45703L0.634651 7.5957L0.628791 4.38867C0.624885 0.869141 0.617072 1.08203 0.742072 0.896484C0.812385 0.789062 0.919807 0.708984 1.06043 0.662109C1.15809 0.626953 1.34754 0.626953 5.02918 0.630859L8.89637 0.634766L9.00574 0.685547ZM8.44324 5.30859L9.37684 6.24219L9.37098 7.56836L9.36512 8.89648L9.31434 9.00586C9.24988 9.14453 9.14442 9.25 9.00574 9.31445L8.89637 9.36523L8.01551 9.37109L7.1366 9.37695L5.99012 8.21484C5.35926 7.57617 4.84364 7.04688 4.84364 7.03906C4.84364 7.02148 7.48231 4.375 7.49989 4.375C7.50574 4.375 7.92957 4.79492 8.44324 5.30859ZM4.69715 7.8125L6.25965 9.375L3.68153 9.37109L1.1034 9.36523L0.994026 9.31445C0.855354 9.24805 0.749885 9.14453 0.685432 9.00586C0.64051 8.9082 0.634651 8.87305 0.634651 8.67188V8.44922L1.86121 7.34961C2.53699 6.74414 3.09949 6.25 3.11121 6.25C3.12488 6.25 3.83778 6.95312 4.69715 7.8125Z" fill="black"/>
<path d="M2.22852 1.27978C1.88086 1.35595 1.54883 1.61572 1.39062 1.93603C1.20508 2.31298 1.20508 2.68798 1.39062 3.06493C1.55078 3.38915 1.88086 3.64501 2.23828 3.72118C3.11914 3.90868 3.9082 3.11962 3.7207 2.23876C3.58008 1.57079 2.90039 1.13525 2.22852 1.27978ZM2.75781 1.93798C3.14648 2.11767 3.24219 2.6372 2.93945 2.93993C2.70117 3.17626 2.29883 3.17626 2.06055 2.93993C1.9082 2.78759 1.84375 2.5415 1.90039 2.34228C2.01172 1.96337 2.40625 1.77783 2.75781 1.93798Z" fill="black"/>
</g>
<defs>
<clipPath id="clip0_76_43">
<rect width="10" height="10" fill="white"/>
</clipPath>
</defs>
</svg>
