<svg width="11" height="11" viewBox="0 0 11 11" fill="none" xmlns="http://www.w3.org/2000/svg">
<path d="M5.51936 0.879684C3.02943 1.15209 1.08801 2.98175 0.816158 5.31042C0.508225 7.93801 2.42318 10.3414 5.18255 10.797C5.71663 10.8838 6.57547 10.8886 6.90506 10.8067C7.03737 10.7729 7.16969 10.6307 7.19134 10.4981C7.22021 10.3269 7.08308 10.11 6.9219 10.0714C6.88821 10.0618 6.69095 10.0666 6.48165 10.0835C5.03821 10.1895 3.68619 9.69054 2.72631 8.69495C1.99978 7.94524 1.60524 7.04367 1.55712 6.03602C1.4657 4.07618 2.87546 2.27544 4.89627 1.77162C5.41591 1.64144 6.06546 1.59323 6.58509 1.64626C6.85694 1.67519 6.87137 1.67519 6.97482 1.62457C7.11195 1.55707 7.18893 1.43654 7.18893 1.28949C7.18653 1.07736 7.06383 0.93995 6.83769 0.898969C6.65486 0.86522 5.75993 0.853167 5.51936 0.879684Z" fill="black"/>
<path d="M9.03915 4.20647C8.85632 4.24504 8.74325 4.38486 8.74325 4.57771C8.74325 4.65485 8.76009 4.72717 8.78896 4.77297C8.81542 4.81395 9.01029 4.98751 9.22199 5.15867L9.60931 5.46964L7.36717 5.48169L5.12263 5.49375L5.04565 5.5516C4.82432 5.71794 4.84597 6.0506 5.08654 6.19042C5.16834 6.24104 5.20683 6.24104 7.38161 6.2531L9.59488 6.26515L9.29416 6.5038C8.79618 6.90155 8.74325 6.96423 8.74325 7.15226C8.74325 7.43189 9.07043 7.62233 9.30138 7.4777C9.45294 7.38368 10.1891 6.77379 10.3767 6.58817C10.918 6.05301 10.9204 5.6866 10.3791 5.14179C10.1939 4.95618 9.43129 4.31977 9.29897 4.24022C9.23883 4.20647 9.11614 4.1896 9.03915 4.20647Z" fill="black"/>
</svg>
