<svg width="13" height="12" viewBox="0 0 13 12" fill="none" xmlns="http://www.w3.org/2000/svg">
<path d="M1.42186 0.0519953C1.162 0.12165 0.958398 0.239527 0.757473 0.437774C0.553869 0.644058 0.438671 0.844985 0.369017 1.11824C0.318116 1.32185 0.315437 1.40222 0.323474 2.89443L0.331511 4.45898L0.401165 4.63847C0.588696 5.12338 0.982509 5.47433 1.45401 5.58417C1.60939 5.62167 1.86122 5.62435 3.21947 5.619L4.80544 5.61096L4.96618 5.54666C5.3975 5.3752 5.71362 5.05908 5.86901 4.64651C5.93062 4.48577 5.93062 4.47238 5.93866 2.89443C5.94402 1.79604 5.93598 1.25755 5.91723 1.15843C5.86365 0.901244 5.69755 0.614589 5.48859 0.416342C5.2957 0.236848 5.18586 0.167193 4.926 0.0680694C4.78401 0.0144891 4.73311 0.0118101 3.19804 0.00645202C1.70584 0.00109399 1.60672 0.003773 1.42186 0.0519953ZM4.66346 0.887849C4.72239 0.903923 4.82152 0.96554 4.88581 1.0218C5.09477 1.20665 5.08942 1.15307 5.08138 2.85425L5.07334 4.35718L4.99297 4.48577C4.93403 4.58222 4.87242 4.63847 4.76794 4.69205L4.62595 4.76707H3.13375C1.74602 4.76707 1.63618 4.76171 1.53438 4.71617C1.39775 4.65455 1.24505 4.47505 1.20487 4.33039C1.18075 4.25002 1.1754 3.80798 1.18075 2.7578L1.18879 1.29774L1.2638 1.17182C1.34417 1.03519 1.45133 0.946787 1.60136 0.893207C1.73531 0.844985 4.50539 0.839627 4.66346 0.887849Z" stroke="none"/>
<path d="M7.92647 0.0167263C7.36656 0.110492 6.86559 0.576641 6.73432 1.12584C6.6727 1.3857 6.67538 4.26833 6.737 4.50944C6.87095 5.03185 7.30494 5.46049 7.82199 5.58373C8.07382 5.64266 10.9377 5.64266 11.1895 5.58373C11.4547 5.51943 11.669 5.39619 11.878 5.18455C12.0977 4.96219 12.1941 4.79609 12.2665 4.50944C12.3174 4.31655 12.32 4.20939 12.32 2.81362C12.32 1.17138 12.3174 1.13923 12.1513 0.804358C12.0468 0.590036 11.7816 0.311418 11.5672 0.190863C11.4815 0.14264 11.3208 0.0810228 11.2056 0.0515536C11.01 0.00065223 10.9136 -0.00202679 9.49637 0.00065223C8.66856 0.00333125 7.96398 0.0113683 7.92647 0.0167263ZM11.1573 0.949025C11.2377 0.999926 11.3181 1.0803 11.369 1.16067L11.4494 1.29194L11.4574 2.76808C11.4654 4.40228 11.4681 4.37281 11.2913 4.57374C11.1172 4.77198 11.1707 4.76663 9.51244 4.76663C7.88093 4.76663 7.92379 4.77198 7.74162 4.59785C7.54605 4.41299 7.55141 4.46658 7.55141 2.84041C7.55141 1.82506 7.55945 1.35356 7.58088 1.28122C7.62642 1.13388 7.75502 0.991889 7.9104 0.919555L8.04703 0.855259L9.53655 0.860617L11.0261 0.868654L11.1573 0.949025Z" stroke="none"/>
<path d="M1.45133 6.41159C1.11109 6.49464 0.74407 6.75718 0.55654 7.04652C0.510997 7.12153 0.438664 7.26084 0.401158 7.35996L0.331504 7.53946L0.323467 9.09865C0.31543 10.8213 0.318109 10.848 0.486886 11.1936C0.602083 11.4321 0.886057 11.716 1.12449 11.8312C1.47008 12 1.49419 12.0027 3.21947 11.9947C4.73042 11.9866 4.784 11.9839 4.92599 11.9304C5.18585 11.8312 5.29569 11.7616 5.4859 11.5848C5.60913 11.4696 5.7029 11.349 5.7672 11.2258C5.94669 10.8856 5.94401 10.9016 5.94401 9.1683V7.60911L5.87704 7.40015C5.74041 6.96347 5.41893 6.63127 4.96617 6.45177L4.80543 6.38748L3.19803 6.38212C1.96569 6.37944 1.55849 6.3848 1.45133 6.41159ZM4.72506 7.28227C4.784 7.30906 4.86973 7.37336 4.91795 7.42158C5.09209 7.60375 5.08673 7.56089 5.08673 9.19241C5.08673 10.8507 5.09209 10.7971 4.89384 10.9713C4.69292 11.1481 4.72239 11.1454 3.0882 11.1374L1.61207 11.1293L1.4808 11.049C1.40043 10.9981 1.32005 10.9177 1.26915 10.8373L1.18878 10.7061L1.18075 9.2192L1.17271 7.73502L1.23701 7.59304C1.30666 7.44569 1.43793 7.31978 1.5826 7.2662C1.64689 7.24476 2.08089 7.23405 3.14445 7.23405C4.52414 7.23137 4.62594 7.23673 4.72506 7.28227Z" stroke="none"/>
<path d="M7.77913 6.42496C7.27012 6.56963 6.86827 6.9822 6.737 7.48853C6.67538 7.72964 6.6727 10.6123 6.73432 10.8721C6.79593 11.1293 6.92185 11.3463 7.13617 11.558C7.35585 11.7776 7.52194 11.8741 7.8086 11.9464C8.00149 11.9973 8.10865 12 9.5044 12C11.1466 12 11.1788 11.9973 11.5137 11.8312C11.7494 11.716 12.0361 11.4294 12.1513 11.1936C12.3174 10.8587 12.32 10.8266 12.32 9.18435C12.32 7.78858 12.3174 7.68142 12.2665 7.48853C12.237 7.37334 12.1807 7.21795 12.1405 7.14294C12.0334 6.94201 11.7253 6.63928 11.5244 6.53748C11.2029 6.37674 11.1761 6.37406 9.48029 6.37674C8.10329 6.37674 7.92379 6.3821 7.77913 6.42496ZM11.0368 7.2635C11.1868 7.30636 11.3395 7.44835 11.4065 7.60641C11.4628 7.74036 11.4654 7.75108 11.4574 9.22186L11.4494 10.706L11.369 10.8373C11.3181 10.9177 11.2377 10.998 11.1573 11.0489L11.0261 11.1293L9.54191 11.1374C8.07114 11.1454 8.06042 11.1427 7.92647 11.0865C7.76841 11.0195 7.62642 10.8668 7.58356 10.7168C7.55945 10.6444 7.55141 10.1863 7.55141 9.16292C7.55141 7.56355 7.54873 7.60373 7.72019 7.42156C7.90504 7.22599 7.85146 7.23135 9.47761 7.23135C10.5064 7.23135 10.9645 7.23938 11.0368 7.2635Z" stroke="none"/>
</svg>
