<svg width="11" height="11" viewBox="0 0 11 11" fill="none" xmlns="http://www.w3.org/2000/svg">
<path d="M4.59124 0.932123C4.43151 0.982939 4.29226 1.08261 4.20216 1.21356C4.12844 1.3191 4.09977 1.40901 3.95847 2.00706L3.90523 2.23182L3.67178 2.34518C3.54277 2.40577 3.35028 2.51326 3.24175 2.58167L3.04516 2.70675L2.63151 2.58167C2.15233 2.43508 2.00899 2.41554 1.82674 2.46635C1.68339 2.50544 1.51343 2.60903 1.4438 2.69698C1.33117 2.83965 0.610356 4.05726 0.579639 4.15499C0.536636 4.29375 0.538684 4.42079 0.583735 4.56151C0.641073 4.7335 0.698411 4.80386 1.06087 5.12439L1.39056 5.41755V5.89639V6.37522L1.06087 6.66839C0.880663 6.82865 0.708649 6.99282 0.679981 7.02996C0.612404 7.11791 0.546875 7.32117 0.546875 7.43844C0.546875 7.48925 0.561209 7.57915 0.579639 7.63779C0.626738 7.78632 1.39056 9.04303 1.49704 9.14466C1.54414 9.18961 1.64039 9.25215 1.71411 9.28538C1.83493 9.3401 1.86564 9.34596 2.03151 9.34401C2.19943 9.34205 2.25267 9.33033 2.63151 9.21306L3.04721 9.08407L3.24175 9.20915C3.34824 9.27756 3.53868 9.3831 3.66564 9.44564C3.79056 9.50623 3.89704 9.559 3.90114 9.56095C3.90523 9.56486 3.95233 9.75444 4.00762 9.98506C4.06086 10.2137 4.11615 10.4268 4.13049 10.46C4.17144 10.5616 4.3066 10.7141 4.41103 10.7786C4.60762 10.8978 4.64858 10.9017 5.59874 10.8958L6.45472 10.89L6.59192 10.8255C6.7496 10.7512 6.91547 10.5929 6.96461 10.4659C6.98304 10.4189 7.04243 10.1981 7.09567 9.97334L7.19192 9.56486L7.41922 9.45541C7.54413 9.39482 7.73867 9.28538 7.8513 9.21502L8.05608 9.08407L8.47382 9.21306C8.85676 9.33228 8.90591 9.34205 9.07587 9.34401C9.24584 9.34596 9.27246 9.3401 9.39737 9.28147C9.48338 9.24042 9.56734 9.18374 9.62263 9.12316C9.71887 9.01957 10.4786 7.77264 10.5216 7.64561C10.5626 7.52638 10.5523 7.31335 10.5011 7.18436C10.4397 7.028 10.3844 6.96742 10.0301 6.65862L9.71273 6.38304V5.89639V5.40973L10.0281 5.13416C10.368 4.83708 10.4581 4.73545 10.5134 4.5791C10.5564 4.45597 10.5564 4.23903 10.5114 4.12176C10.4581 3.98104 9.71683 2.7732 9.62263 2.66962C9.56734 2.60903 9.48338 2.55235 9.39737 2.51131C9.27246 2.45267 9.24584 2.44681 9.07587 2.44876C8.90591 2.44876 8.85881 2.45854 8.47382 2.57776L8.05403 2.7087L7.8513 2.57776C7.73867 2.5074 7.54413 2.3999 7.41922 2.33736L7.19192 2.22791L7.09772 1.82139C7.04448 1.60054 6.98509 1.37773 6.96666 1.33083C6.91547 1.19988 6.75164 1.04157 6.59192 0.967303L6.45472 0.902807L5.58441 0.898898C4.76735 0.894989 4.70591 0.896944 4.59124 0.932123ZM6.34209 1.54777C6.35642 1.56536 6.42195 1.80185 6.48543 2.07547C6.5571 2.3784 6.62059 2.5973 6.64721 2.63834C6.69226 2.7087 6.73117 2.73216 6.9769 2.82988C7.18782 2.91392 7.40898 3.039 7.65267 3.20904C7.78577 3.3009 7.88406 3.35562 7.93526 3.36539C7.99669 3.37517 8.11342 3.34585 8.53321 3.21881C8.8199 3.13282 9.06973 3.06246 9.08816 3.06246C9.10659 3.06246 9.13116 3.07418 9.14345 3.08591C9.16597 3.11523 9.82126 4.19603 9.87246 4.28789C9.89089 4.32111 9.89908 4.36411 9.89294 4.37975C9.88679 4.39734 9.70044 4.56933 9.48133 4.76477C9.26222 4.96021 9.06768 5.14784 9.0513 5.18497C9.02263 5.24165 9.02058 5.27683 9.04106 5.46055C9.07178 5.72831 9.07178 6.06251 9.04311 6.32832C9.02058 6.51985 9.02263 6.54135 9.05744 6.61171C9.08202 6.65862 9.24379 6.81693 9.48133 7.02996C9.6943 7.21758 9.87655 7.38762 9.88679 7.40521C9.90113 7.42866 9.89703 7.45993 9.87246 7.50293C9.81922 7.60261 9.16597 8.67755 9.14345 8.70491C9.13116 8.71859 9.10659 8.73032 9.08816 8.73032C9.06973 8.73032 8.82195 8.65996 8.53731 8.57396C8.25266 8.48797 8.00079 8.41761 7.97826 8.41761C7.90659 8.41761 7.81034 8.46842 7.61171 8.6111C7.48475 8.70295 7.31273 8.80068 7.12024 8.88863C6.68407 9.09189 6.68407 9.09189 6.64106 9.15834C6.62059 9.19352 6.55096 9.44564 6.48543 9.71926C6.4199 9.99288 6.35642 10.2294 6.34209 10.245C6.31956 10.2704 6.20284 10.2743 5.55369 10.2743C4.85335 10.2743 4.78987 10.2724 4.7612 10.2391C4.74277 10.2215 4.67724 9.98115 4.61172 9.70753C4.54823 9.43391 4.4868 9.19547 4.47861 9.17984C4.44175 9.11339 4.35369 9.05866 4.15506 8.97657C3.90933 8.87299 3.66564 8.73618 3.424 8.56614C3.31957 8.49188 3.22127 8.43715 3.17622 8.42738C3.11274 8.41761 3.00216 8.44301 2.55984 8.57592C2.14619 8.701 2.01104 8.73423 1.98442 8.71859C1.96599 8.70686 1.77964 8.41761 1.57281 8.07558C1.25336 7.54984 1.19807 7.44821 1.21445 7.41107C1.22469 7.38567 1.40899 7.21172 1.62605 7.02214C2.08885 6.61562 2.09909 6.59998 2.06428 6.35763C2.03561 6.16219 2.03561 5.63058 2.06428 5.43514C2.09909 5.19279 2.08885 5.17716 1.62605 4.77063C1.40899 4.58105 1.22469 4.40711 1.21445 4.3817C1.19807 4.34261 1.25131 4.24489 1.57281 3.71524C1.77964 3.37517 1.96394 3.08591 1.98442 3.07418C2.00899 3.0605 2.15029 3.09373 2.55779 3.21686C3.00216 3.34976 3.11274 3.37517 3.17417 3.36539C3.22127 3.35562 3.32161 3.3009 3.43629 3.21881C3.68407 3.04291 3.89909 2.92369 4.15506 2.8162C4.47861 2.6833 4.46632 2.70089 4.61172 2.08719C4.67929 1.8038 4.74482 1.5595 4.7612 1.54582C4.78373 1.52432 4.93526 1.51845 5.55165 1.51845C6.21308 1.51845 6.31956 1.52236 6.34209 1.54777Z" fill="black"/>
<path d="M5.3794 3.81669C5.35073 3.8206 5.26063 3.83428 5.17871 3.84601C4.98213 3.87337 4.71796 3.95936 4.52138 4.06099C3.98691 4.33461 3.60397 4.79586 3.4381 5.3646C3.38896 5.53659 3.38281 5.58545 3.38281 5.89621C3.38281 6.20696 3.38896 6.25582 3.4381 6.4239C3.68793 7.27995 4.40875 7.86628 5.33435 7.96791C5.58622 7.99722 5.88929 7.96986 6.14936 7.89755C6.89271 7.69233 7.46608 7.12946 7.66677 6.40827C7.71386 6.24019 7.72001 6.18155 7.72001 5.89621C7.72001 5.61086 7.71386 5.55223 7.66677 5.38415C7.46608 4.661 6.89271 4.10008 6.15141 3.89487C5.90772 3.82646 5.55755 3.79324 5.3794 3.81669ZM5.94663 4.49097C6.391 4.59846 6.79851 4.94831 6.97257 5.36851C7.05243 5.56395 7.06677 5.64799 7.06677 5.89621C7.06677 6.14442 7.05243 6.22846 6.97257 6.4239C6.89271 6.61739 6.78827 6.76398 6.61011 6.93206C6.30909 7.21741 5.98144 7.3464 5.55346 7.34835C4.95755 7.35031 4.43947 7.04151 4.18145 6.5314C4.07291 6.31641 4.02786 6.13074 4.02786 5.89621C4.02786 5.27861 4.42308 4.73918 5.02718 4.5281C5.32411 4.42452 5.62923 4.41279 5.94663 4.49097Z" fill="black"/>
</svg>
