<svg width="14" height="12" viewBox="0 0 14 12" fill="none" xmlns="http://www.w3.org/2000/svg">
<path d="M10.2308 2.57895C12.5385 2.57895 13 2.57895 13 2.57895V11C13 11 12.7015 11 12.3333 11H1C1 11 1.00008 11 1.00008 10.3985V2.57895C1.00008 2.57895 7.46157 2.57895 10.2308 2.57895ZM10.2308 2.57895V1.52632L9.30772 1H7.00004H4.69236L3.76929 1.52632V2.57895H10.2308Z" stroke-linecap="round" stroke-linejoin="round" fill="none"/>
<path d="M9 6.55621C9 7.78348 8.10455 8.77843 7 8.77843C5.89545 8.77843 5 7.78348 5 6.55621C5 5.32893 5.89545 4.33398 7 4.33398C8.10455 4.33398 9 5.32893 9 6.55621Z" fill="none"/>
</svg>
