<svg width="11" height="11" viewBox="0 0 11 11" fill="none" xmlns="http://www.w3.org/2000/svg">
<path d="M1.64597 0.44824C0.89268 0.602525 0.333859 1.18165 0.217625 1.93519C0.197507 2.06041 0.193036 2.99283 0.197507 5.52401C0.204213 8.64326 0.208683 8.9563 0.242213 9.06811C0.315977 9.31183 0.37633 9.44823 0.483623 9.61146C0.73621 10.0005 1.08491 10.2487 1.56773 10.3829C1.69068 10.4187 2.00361 10.4209 5.20007 10.4209C8.39652 10.4209 8.70946 10.4187 8.8324 10.3829C9.06934 10.318 9.21687 10.2532 9.38675 10.1414C9.77569 9.88873 10.0238 9.53991 10.1579 9.05692C10.1937 8.93394 10.1959 8.6209 10.1959 5.42339C10.1959 2.22588 10.1937 1.91283 10.1579 1.78985C10.0238 1.30687 9.77569 0.958053 9.38675 0.705382C9.22358 0.598053 9.08722 0.537681 8.84358 0.463892C8.73181 0.430351 8.42111 0.425879 5.25595 0.421407C2.45961 0.419171 1.7622 0.423643 1.64597 0.44824ZM8.67593 1.16377C9.0604 1.26439 9.35769 1.56401 9.45828 1.95085C9.50969 2.14314 9.50969 8.70363 9.45828 8.89593C9.35769 9.28276 9.0604 9.58239 8.67593 9.68301C8.5597 9.71208 8.13052 9.71655 5.20007 9.71655C2.26961 9.71655 1.84044 9.71208 1.7242 9.68301C1.33974 9.58239 1.04244 9.28276 0.941856 8.89593C0.890444 8.70363 0.890444 2.14314 0.941856 1.95085C1.04244 1.56849 1.3375 1.26662 1.71526 1.166C1.90303 1.11457 8.48146 1.11457 8.67593 1.16377Z" stroke="none"/>
<path d="M2.90896 5.09696C2.75919 5.1618 2.67425 5.33397 2.70555 5.50168C2.72566 5.60677 2.83743 5.72975 2.93802 5.75882C2.9939 5.77671 3.72707 5.78118 5.2493 5.77671C7.45999 5.77 7.47787 5.77 7.53823 5.72304C7.6567 5.63584 7.69246 5.56429 7.69246 5.42342C7.69246 5.28255 7.6567 5.21099 7.53823 5.12379C7.47787 5.07683 7.45999 5.07683 5.22695 5.07236C3.38954 5.06789 2.9626 5.07236 2.90896 5.09696Z" stroke="none"/>
</svg>
