<svg width="11" height="11" viewBox="0 0 11 11" fill="none" xmlns="http://www.w3.org/2000/svg">
<path d="M1.7263 0.298953C1.02329 0.440849 0.501775 0.985481 0.3933 1.68662C0.374525 1.80347 0.370353 2.75501 0.374525 5.36966C0.380783 8.59363 0.384956 8.90664 0.416247 9.01098C0.485087 9.23843 0.541411 9.36572 0.641542 9.51805C0.877268 9.88114 1.20269 10.1128 1.65328 10.238C1.76802 10.2714 2.08093 10.2734 5.37692 10.2734C8.6729 10.2734 8.98581 10.2714 9.10055 10.238C9.32167 10.1774 9.45935 10.1169 9.61789 10.0126C9.98087 9.7768 10.2124 9.45127 10.3376 9.00054C10.371 8.88577 10.373 8.57277 10.373 5.27576C10.373 1.97876 10.371 1.66575 10.3376 1.55098C10.2124 1.10025 9.98087 0.774723 9.61789 0.538925C9.46561 0.438763 9.33836 0.382421 9.11098 0.31356C9.00667 0.280172 8.69585 0.278086 5.42907 0.273912C2.54404 0.271826 1.83686 0.275999 1.7263 0.298953ZM8.95035 0.966701C9.31124 1.0606 9.59077 1.33814 9.68464 1.69705C9.71176 1.80556 9.71594 2.2396 9.71594 5.27576C9.71594 9.07984 9.72428 8.84195 9.58869 9.09653C9.50941 9.2426 9.32584 9.42415 9.17773 9.49927C8.93366 9.62238 9.14227 9.61612 5.37692 9.61612C2.34169 9.61612 1.90778 9.61195 1.79931 9.58482C1.44051 9.49092 1.16306 9.2113 1.06919 8.8503C1.02121 8.67084 1.02121 1.88068 1.06919 1.70122C1.16306 1.3444 1.43842 1.06269 1.79097 0.968787C1.96411 0.92288 8.77303 0.920793 8.95035 0.966701Z" stroke="none"/>
<path d="M5.24134 2.30042C5.16415 2.3359 5.09531 2.40893 5.06611 2.48614C5.0515 2.52579 5.04316 2.94522 5.04316 3.74234V4.9422L3.81447 4.94638C2.60872 4.95264 2.58369 4.95264 2.52736 4.99646C2.4168 5.07784 2.38342 5.14461 2.38342 5.27608C2.38342 5.40754 2.4168 5.47431 2.52736 5.5557C2.58369 5.59952 2.60872 5.59952 3.81238 5.60578L5.04316 5.60995L5.04733 6.84111C5.05359 8.04514 5.05359 8.07018 5.0974 8.12652C5.17875 8.23712 5.24551 8.27051 5.37693 8.27051C5.50835 8.27051 5.57511 8.23712 5.65646 8.12652C5.70027 8.07018 5.70027 8.04514 5.70653 6.84111L5.7107 5.60995L6.94148 5.60578C8.14514 5.59952 8.17017 5.59952 8.2265 5.5557C8.33706 5.47431 8.37044 5.40754 8.37044 5.27608C8.37044 5.14461 8.33706 5.07784 8.2265 4.99646C8.17017 4.95264 8.14514 4.95264 6.94148 4.94638L5.7107 4.9422L5.70653 3.71104C5.70027 2.50701 5.70027 2.48197 5.65646 2.42563C5.63352 2.39433 5.58971 2.34842 5.5605 2.32755C5.48958 2.27538 5.32478 2.26078 5.24134 2.30042Z" stroke="none"/>
</svg>
