<svg width="11" height="13" viewBox="0 0 11 13" fill="none" xmlns="http://www.w3.org/2000/svg">
<path d="M0.99999 3.33329H9.16666M3.91666 0.999954H6.24999C6.40469 0.999954 6.55309 1.06141 6.66246 1.17081C6.77184 1.2802 6.83332 1.42858 6.83332 1.58329V3.33329H3.33332V1.58329C3.33332 1.42858 3.39478 1.2802 3.50418 1.17081C3.61357 1.06141 3.76194 0.999954 3.91666 0.999954ZM1.58332 3.33329H8.58332V10.9166C8.58332 11.0713 8.52184 11.2197 8.41247 11.3291C8.30309 11.4385 8.15469 11.5 7.99999 11.5H2.16666C2.01194 11.5 1.86357 11.4385 1.75418 11.3291C1.64478 11.2197 1.58332 11.0713 1.58332 10.9166V3.33329Z" stroke="#ed635f" stroke-width="2" stroke-linecap="round" stroke-linejoin="round"/>
</svg>
