<svg width="11" height="14" viewBox="0 0 11 14" fill="none" xmlns="http://www.w3.org/2000/svg">
<path d="M0.833328 3.46648H9.83333M4.04761 0.799805H6.61904C6.78952 0.799805 6.95306 0.870048 7.0736 0.995061C7.19414 1.12009 7.26189 1.28966 7.26189 1.46648V3.46648H3.40475V1.46648C3.40475 1.28966 3.47249 1.12009 3.59304 0.995061C3.7136 0.870048 3.87711 0.799805 4.04761 0.799805ZM1.47618 3.46648H9.19046V12.1332C9.19046 12.31 9.12269 12.4796 9.00218 12.6046C8.88163 12.7296 8.71809 12.7998 8.54761 12.7998H2.11904C1.94855 12.7998 1.78503 12.7296 1.66447 12.6046C1.54392 12.4796 1.47618 12.31 1.47618 12.1332V3.46648Z" stroke="#FF4E4E" stroke-linecap="round" stroke-linejoin="round"/>
</svg>
