<svg width="10" height="14" viewBox="0 0 10 14" fill="none" xmlns="http://www.w3.org/2000/svg">
<path d="M0.833328 3.46648H8.83333M3.69047 0.799805H5.97618C6.12772 0.799805 6.27309 0.870048 6.38024 0.995061C6.48738 1.12009 6.5476 1.28966 6.5476 1.46648V3.46648H3.11904V1.46648C3.11904 1.28966 3.17925 1.12009 3.28641 0.995061C3.39357 0.870048 3.53891 0.799805 3.69047 0.799805ZM1.40475 3.46648H8.26189V12.1332C8.26189 12.31 8.20165 12.4796 8.09453 12.6046C7.98738 12.7296 7.842 12.7998 7.69047 12.7998H1.97619C1.82463 12.7998 1.67929 12.7296 1.57212 12.6046C1.46496 12.4796 1.40475 12.31 1.40475 12.1332V3.46648Z" stroke="#FF4E4E" stroke-linecap="round" stroke-linejoin="round"/>
</svg>
